<svg width="122" height="18" viewBox="0 0 122 18" fill="none" xmlns="http://www.w3.org/2000/svg">
<path d="M18.9002 14.2379C18.0244 15.4922 17.3362 15.8685 15.7722 15.8685H10.0791V15.7431C9.95401 15.8685 11.2678 14.7396 13.1446 13.2971C15.5219 11.4783 18.2121 9.59684 18.2121 6.39827C18.2121 3.38786 15.4594 2.0708 12.8318 2.0708C11.3929 2.0708 9.57864 2.76069 8.76535 3.32514C8.76535 3.32514 8.64023 4.76763 8.57767 6.02197H8.95303C9.51608 5.14393 10.1417 4.45405 10.8299 3.95231C11.3929 3.57601 12.0185 3.32514 13.0821 3.32514C14.8963 3.32514 16.2101 4.76763 16.1475 6.33556C16.085 8.27978 14.7086 10.0359 13.1446 11.6038C9.95401 14.7396 7.8895 16.5584 7.8895 16.5584V17.75H16.3352C17.3362 17.75 18.0244 17.75 18.9002 17.8128L19.213 14.2379H18.9002Z" fill="white"/>
<path d="M62.2417 10.8512C62.2417 7.15088 60.5526 3.26242 57.0492 3.26242C54.1714 3.26242 52.3571 6.02197 52.3571 9.59684C52.3571 13.7362 54.4842 16.8093 57.6748 16.8093C60.4275 16.872 62.2417 14.3006 62.2417 10.8512ZM49.8547 10.224C49.8547 5.26937 53.3581 2.0708 57.2994 2.0708C61.491 2.0708 64.6816 5.14393 64.6816 10.0359C64.6816 14.7396 61.3659 18.0009 57.362 18.0009C53.1078 18.0009 49.8547 14.9278 49.8547 10.224Z" fill="white"/>
<path d="M88.7799 7.5899C88.6548 5.14393 87.2784 3.32514 84.7134 3.32514C82.1484 3.32514 80.7721 5.52023 80.5218 7.9662L88.7799 7.5899ZM78.2697 10.3494C78.2697 5.52023 81.21 2.0708 85.339 2.0708C88.905 2.0708 91.1572 4.20318 91.1572 8.15435C91.1572 8.40522 91.0947 8.59337 91.0947 8.84423H80.4593C80.3967 9.15782 80.3967 9.40869 80.3967 9.65955C80.3967 13.3599 82.3361 16.3076 86.2775 16.3076C88.2794 16.3076 89.5932 15.8058 90.8444 15.1786C90.6567 15.8685 90.2814 16.433 89.7809 16.9347C88.905 17.6246 87.5912 18.0009 85.6518 18.0009C81.0223 18.0009 78.2697 14.9905 78.2697 10.3494Z" fill="white"/>
<path d="M104.16 7.5899C104.035 5.14393 102.658 3.32514 100.093 3.32514C97.5283 3.32514 96.1519 5.52023 95.9017 7.9662L104.16 7.5899ZM93.5869 10.3494C93.5869 5.52023 96.5273 2.0708 100.656 2.0708C104.222 2.0708 106.475 4.20318 106.475 8.15435C106.475 8.40522 106.412 8.59337 106.412 8.84423H95.7766C95.714 9.15782 95.714 9.40869 95.714 9.65955C95.714 13.3599 97.6534 16.3076 101.595 16.3076C103.597 16.3076 104.91 15.8058 106.162 15.1786C105.974 15.8685 105.599 16.433 105.098 16.9347C104.222 17.6246 102.909 18.0009 100.969 18.0009C96.3396 18.0009 93.5869 14.9905 93.5869 10.3494Z" fill="white"/>
<path d="M76.3882 2.19623C76.0754 2.13352 75.7 2.0708 75.2621 2.0708C72.8222 2.0708 70.7577 4.26589 70.7577 4.26589V2.0708L66.9415 3.70144L68.6932 5.14393V15.1159C68.6932 16.2448 68.4429 16.9347 67.2543 17.5619V17.75H72.3843V17.5619C71.0705 16.9347 70.6951 16.2448 70.6951 15.1159V5.14393C71.7587 4.45404 72.6971 4.14046 73.8232 4.14046C74.8867 4.14046 75.8251 4.45405 76.5759 5.0185H76.6384L76.3882 2.19623Z" fill="white"/>
<path d="M45.1019 16.3691C43.4753 16.3691 42.4744 15.4284 42.4744 13.7977V4.0766H47.9172L48.0423 2.88498H42.4744V0H42.3492L38.4705 3.95117V4.0766H40.4724L40.4098 13.735C40.3473 16.4946 41.9739 17.9998 44.5389 17.9998C46.5408 17.9998 47.9797 17.1845 48.1674 15.4911C47.4167 15.9928 46.4157 16.3691 45.1019 16.3691Z" fill="white"/>
<path d="M31.0449 8.77861C29.3557 8.08873 27.9168 7.27341 27.9168 6.26994C27.9168 4.70201 29.2931 3.38495 31.1074 3.38495C32.1084 3.38495 32.7966 3.63582 33.3596 4.01212C34.0478 4.51386 34.6734 5.20375 35.2364 6.08178H35.6118C35.5492 4.82745 35.4241 3.38495 35.4241 3.38495C34.6108 2.8205 32.734 2.13062 31.3577 2.13062C28.7301 2.13062 26.4779 3.69854 26.4779 6.64624C26.4779 9.8448 29.606 10.7856 31.9833 11.7263C33.5473 12.3535 34.7985 12.9179 34.7985 14.1096C34.7985 15.6775 33.4847 16.6182 31.5453 16.6182C31.1074 16.6182 30.6695 16.5555 30.2941 16.4928C29.4183 16.3674 28.605 15.9911 28.0419 15.3639C27.604 14.9876 27.2286 14.4859 26.9158 13.8587H26.5405C26.603 14.8622 26.6656 15.7402 26.7282 16.5555C27.2912 16.9945 28.8552 17.998 31.3577 17.998C34.3606 17.998 36.4251 16.3674 36.4251 13.796C36.3 10.7856 33.4222 9.78209 31.0449 8.77861Z" fill="white"/>
<path d="M121.437 14.6141C120.811 15.743 120.186 16.5583 118.809 16.5583H112.053L122 2.44702H109.363L108.987 5.89645H109.363C110.176 4.64212 110.927 3.70136 112.303 3.70136H118.559L108.737 17.75H121.5L121.812 14.6141H121.437Z" fill="white"/>
<path d="M4.0039 15.1159V6.1474V5.70838V2.0708H3.87878L0 6.02197V6.1474H2.00195V15.1159C2.00195 16.2448 1.75171 16.9347 0.563049 17.5619V17.75H5.69305V17.5619C4.37927 16.9347 4.0039 16.2448 4.0039 15.1159Z" fill="white"/>
</svg>
