<svg width="569" height="42" viewBox="0 0 569 42" fill="none" xmlns="http://www.w3.org/2000/svg">
<path d="M15.8074 16.1443H15.3237L15.5656 16.3858L15.8074 16.1443Z" fill="white"/>
<path d="M37.0887 17.1102L40.2325 19.6456C41.4417 18.076 42.7718 16.8687 44.2228 16.1443H37.8142C37.5723 16.3858 37.3305 16.748 37.0887 17.1102Z" fill="white"/>
<path d="M99.8443 17.1102L102.988 19.6456C104.197 18.076 105.527 16.8687 106.978 16.1443H100.57C100.328 16.3858 100.086 16.748 99.8443 17.1102Z" fill="white"/>
<path d="M5.65041 0.932129H0.209167L10.2452 16.1447H15.3237L5.65041 0.932129Z" fill="white"/>
<path d="M25.4807 0.932129L15.8074 16.1447H21.0068L30.9219 0.932129H25.4807Z" fill="white"/>
<path d="M49.0594 10.7112C44.1018 10.7112 40.3534 12.5222 37.8141 16.1443H44.2227C45.6737 15.4198 47.1247 14.9369 48.8175 14.9369C50.5104 14.9369 51.9614 15.2991 53.0496 16.1443H59.2164C58.7327 15.2991 58.249 14.454 57.5235 13.8503C55.4679 11.6771 52.566 10.7112 49.0594 10.7112Z" fill="white"/>
<path d="M75.0564 11.3149H70.4616V16.1443H75.0564V11.3149Z" fill="white"/>
<path d="M88.1154 11.3149L83.6415 16.1443H89.3245L93.9194 11.3149H88.1154Z" fill="white"/>
<path d="M111.815 10.7112C106.857 10.7112 103.109 12.5222 100.57 16.1443H106.978C108.429 15.4198 109.88 14.9369 111.573 14.9369C113.266 14.9369 114.717 15.2991 115.805 16.1443H121.972C121.488 15.2991 121.005 14.454 120.279 13.8503C118.224 11.6771 115.322 10.7112 111.815 10.7112Z" fill="white"/>
<path d="M153.048 15.5407V11.3149H128.622V15.5407H138.538V16.1443H143.132V15.5407H153.048Z" fill="white"/>
<path d="M172.636 10.7115C168.404 10.5908 164.776 12.1604 161.754 15.1787C161.391 15.5409 161.149 15.7824 160.907 16.1446H167.799C169.25 15.4202 170.943 14.9373 172.757 14.9373C174.571 14.9373 176.143 15.2995 177.594 16.1446H184.486C184.244 15.7824 183.881 15.5409 183.639 15.1787C180.496 12.0396 176.868 10.5908 172.636 10.7115Z" fill="white"/>
<path d="M220.035 11.3149H215.319V16.1443H220.035V11.3149Z" fill="white"/>
<path d="M200.809 11.3149H196.215V16.1443H200.809V11.3149Z" fill="white"/>
<path d="M256.673 0.932129L243.856 5.15785L244.944 9.1421L253.65 6.48593V16.1447H258.366V0.932129H256.673Z" fill="white"/>
<path d="M290.288 3.70859C287.869 1.41462 284.846 0.207275 281.219 0.207275C277.471 0.207275 274.448 1.41462 272.029 3.95006C269.611 6.48549 268.402 9.26239 268.402 12.643C268.402 13.9711 268.523 15.1784 268.765 16.1443H273.601C273.359 15.0577 273.238 13.9711 273.238 12.7637C273.238 10.5905 273.964 8.65872 275.415 6.96843C276.866 5.39888 278.801 4.55373 281.219 4.55373C283.516 4.55373 285.33 5.27814 286.781 6.8477C288.232 8.41725 288.958 10.2283 288.958 12.5222C288.958 13.7296 288.716 14.9369 288.232 16.1443H293.311C293.673 14.9369 293.915 13.6089 293.915 12.2808C293.915 8.90019 292.706 6.00255 290.288 3.70859Z" fill="white"/>
<path d="M326.442 13.2466C325.958 12.5222 325.716 11.5564 325.716 10.349C325.716 8.53798 326.442 7.2099 327.772 6.12329C329.102 5.03667 330.795 4.55373 332.85 4.55373C336.72 4.55373 339.742 6.24402 341.919 9.6246L345.426 6.96843C344.095 4.91594 342.282 3.22565 340.105 2.0183C337.929 0.81095 335.51 0.207275 332.85 0.207275C329.465 0.207275 326.683 1.17315 324.386 3.10491C322.089 5.03667 320.88 7.57211 320.88 10.5905C320.88 12.7637 321.484 14.5747 322.572 16.1443H330.311C329.585 15.7821 328.86 15.4199 328.497 15.0577C327.53 14.5747 326.925 13.9711 326.442 13.2466Z" fill="white"/>
<path d="M383.393 5.15785V0.932129H350.625V5.15785H364.651V16.1447H369.367V5.15785H383.393Z" fill="white"/>
<path d="M407.093 0.207428C401.41 0.0866935 396.452 2.13919 392.341 6.12344C389.439 9.02108 387.625 12.2809 386.779 16.0237H391.857C392.583 13.3675 393.913 11.0736 395.848 9.14181C398.871 6.12344 402.619 4.55389 407.093 4.55389C411.446 4.43315 415.194 6.0027 418.338 9.26255C420.273 11.315 421.603 13.609 422.328 16.1444H427.286C426.44 12.4017 424.626 9.14181 421.724 6.24417C417.613 2.13919 412.655 0.0866935 407.093 0.207428Z" fill="white"/>
<path d="M459.45 4.07088C457.152 1.89765 454.009 0.811035 450.26 0.811035H436.234V16.0236H440.95V5.15749H450.018C452.557 5.15749 454.492 5.8819 455.943 7.20999C457.394 8.53807 458.12 10.3491 458.12 12.5223C458.12 13.9711 457.757 15.0578 457.273 16.1444H462.473C462.835 15.0578 462.956 13.7297 462.956 12.4016C462.956 9.02101 461.747 6.24411 459.45 4.07088Z" fill="white"/>
<path d="M499.352 5.15785V0.932129H473.718V16.1447H478.434V5.15785H499.352Z" fill="white"/>
<path d="M533.572 5.15785V0.932129H507.937V16.1447H512.653V5.15785H533.572Z" fill="white"/>
<path d="M570.209 2.26021V0.932129H541.189V5.15785H562.712L554.974 16.1447H560.415L570.209 2.26021Z" fill="white"/>
<path d="M17.742 16.145H12.6635L15.3237 20.3707L6.85956 33.0479H12.3008L17.9839 24.355L23.6669 33.0479H29.1082L20.7649 20.3707L23.4251 16.145H18.2257" fill="white"/>
<path d="M43.2554 32.9272C43.2554 30.1503 45.4319 28.7015 49.664 28.7015H58.4909V29.4259C58.4909 30.7539 58.1281 31.9613 57.6445 33.0479H63.2066V22.6647C63.2066 20.1293 62.723 17.956 61.7556 16.145H55.5889C55.9516 16.3865 56.3144 16.628 56.5562 16.8694C57.7654 18.1975 58.4909 20.0085 58.4909 22.3025V24.8379H49.1803C46.0365 24.8379 43.3763 25.5623 41.4417 27.1319C39.507 28.5807 38.5397 30.5125 38.5397 33.0479H43.3763C43.2554 32.9272 43.2554 32.9272 43.2554 32.9272Z" fill="white"/>
<path d="M83.7624 24.7172L91.7429 16.145H86.0598L78.0793 24.8379L85.0925 33.0479H90.8965L83.7624 24.7172Z" fill="white"/>
<path d="M77.4748 16.145H72.8799V33.0479H77.4748V16.145Z" fill="white"/>
<path d="M106.011 32.9272C106.011 30.1503 108.188 28.7015 112.42 28.7015H121.246V29.4259C121.246 30.7539 120.884 31.9613 120.4 33.0479H125.962V22.6647C125.962 20.1293 125.479 17.956 124.511 16.145H118.344C118.707 16.3865 119.07 16.628 119.312 16.8694C120.521 18.1975 121.246 20.0085 121.246 22.3025V24.8379H111.936C108.792 24.8379 106.132 25.5623 104.197 27.1319C102.263 28.5807 101.295 30.5125 101.295 33.0479H106.132C106.011 32.9272 106.011 32.9272 106.011 32.9272Z" fill="white"/>
<path d="M145.551 16.145H140.956V33.0479H145.551V16.145Z" fill="white"/>
<path d="M164.414 26.0449C164.414 22.9058 165.381 20.2496 167.437 18.0764C168.283 17.2313 169.129 16.5069 170.097 16.0239H163.205C160.786 18.9216 159.577 22.1814 159.577 25.9242C159.577 28.4596 160.061 30.7536 161.149 32.9268H166.59C165.139 30.9951 164.414 28.7011 164.414 26.0449Z" fill="white"/>
<path d="M190.532 26.0453C190.653 22.3025 189.443 19.0427 186.904 16.145H180.012C180.979 16.628 181.947 17.3524 182.672 18.1975C184.728 20.3707 185.695 23.0269 185.695 26.166C185.695 28.8222 184.849 31.1161 183.277 33.1686H188.718C189.927 30.8747 190.532 28.5807 190.532 26.0453Z" fill="white"/>
<path d="M203.349 27.1319H217.738V33.0479H222.454V16.145H217.738V23.0269H203.349V16.145H198.633V33.0479H203.349V27.1319Z" fill="white"/>
<path d="M260.784 16.145H256.068V33.0479H260.784V16.145Z" fill="white"/>
<path d="M287.99 27.252C289.925 25.1995 291.497 23.3885 292.585 22.0604C293.673 20.7323 294.52 19.1628 295.245 17.714C295.487 17.231 295.608 16.7481 295.85 16.2651H290.771C290.53 16.8688 290.288 17.4725 289.925 17.9554C288.837 19.6457 287.023 21.8189 284.484 24.5958L276.382 33.168H282.549L287.99 27.252Z" fill="white"/>
<path d="M348.207 30.271C348.207 27.7356 347.481 25.6831 346.03 24.1135C344.579 22.4232 342.161 20.8537 338.896 19.1634L334.422 17.1109C333.697 16.7487 333.092 16.3865 332.487 16.145H324.749C324.87 16.3865 325.112 16.628 325.353 16.7487C326.804 18.3182 329.102 19.8878 332.125 21.2159L336.599 23.3891C339.138 24.5965 340.831 25.6831 341.798 26.5282C342.765 27.3734 343.249 28.7015 343.249 30.3917C343.249 31.3576 343.128 32.2028 342.765 33.0479H347.844C348.086 32.082 348.207 31.2369 348.207 30.271Z" fill="white"/>
<path d="M324.144 30.2708L320.638 32.8062C320.638 32.9269 320.759 32.9269 320.759 33.0477H326.321C325.474 32.2025 324.749 31.2366 324.144 30.2708Z" fill="white"/>
<path d="M371.785 16.145H367.07V33.0479H371.785V16.145Z" fill="white"/>
<path d="M398.266 32.3235C395.243 29.1844 393.671 25.3209 393.671 20.7329C393.671 19.0427 393.913 17.5938 394.276 16.145H389.197C388.835 17.5938 388.714 19.1634 388.714 20.8537C388.593 25.4416 389.923 29.5466 392.704 33.0479H398.871C398.629 32.8064 398.387 32.565 398.266 32.3235Z" fill="white"/>
<path d="M430.188 20.8537C430.188 19.1634 430.067 17.5938 429.704 16.145H424.747C425.109 17.5938 425.351 19.1634 425.351 20.7329C425.472 25.3209 423.9 29.1844 420.756 32.3235C420.515 32.565 420.273 32.8064 420.031 32.9272H426.198C428.979 29.4259 430.309 25.4416 430.188 20.8537Z" fill="white"/>
<path d="M443.368 23.9928H451.832L458.482 33.0479H464.045L457.031 23.5098C459.692 22.7854 461.747 21.3366 463.198 19.4049C463.924 18.439 464.528 17.3524 464.891 16.145H459.692C459.329 16.7487 458.966 17.3524 458.482 17.8353C457.031 19.1634 455.097 19.7671 452.557 19.7671H443.489V16.145H438.773V33.0479H443.489V23.9928H443.368Z" fill="white"/>
<path d="M480.852 21.5781H496.934V17.3524H480.852V16.145H476.136V33.0479H480.852V21.5781Z" fill="white"/>
<path d="M515.071 21.5781H531.032V17.3524H515.071V16.145H510.356V33.0479H515.071V21.5781Z" fill="white"/>
<path d="M562.833 16.145H557.392L545.542 33.0479H550.863L562.833 16.145Z" fill="white"/>
<path d="M26.3271 40.7749H31.8892L26.6898 33.0479H21.2486L26.3271 40.7749Z" fill="white"/>
<path d="M7.22231 40.7749L12.3008 33.0479H6.85956L1.66016 40.7749H7.22231Z" fill="white"/>
<path d="M38.9024 39.0842C40.8371 40.6538 43.2554 41.3782 46.3992 41.3782C50.7522 41.3782 54.017 39.9294 56.3144 36.911V40.6538H60.6674V32.9268H55.1052C54.6216 33.6512 54.1379 34.3756 53.2915 35.1C51.4777 36.6695 49.4221 37.5147 46.8829 37.5147C45.0692 37.5147 43.6182 37.1525 42.5299 36.3073C41.4417 35.4622 40.8371 34.3756 40.8371 33.0475H36.0004V33.1682C36.0004 35.5829 36.9678 37.6354 38.9024 39.0842Z" fill="white"/>
<path d="M95.2494 40.7749L88.4781 33.0479H82.6741L89.3245 40.7749H95.2494Z" fill="white"/>
<path d="M75.0564 33.0479H70.4616V40.7749H75.0564V33.0479Z" fill="white"/>
<path d="M101.658 39.0842C103.593 40.6538 106.011 41.3782 109.155 41.3782C113.508 41.3782 116.773 39.9294 119.07 36.911V40.6538H123.423V32.9268H117.861C117.377 33.6512 116.894 34.3756 116.047 35.1C114.233 36.6695 112.178 37.5147 109.639 37.5147C107.825 37.5147 106.374 37.1525 105.286 36.3073C104.197 35.4622 103.593 34.3756 103.593 33.0475H98.756V33.1682C98.756 35.5829 99.7234 37.6354 101.658 39.0842Z" fill="white"/>
<path d="M143.132 33.0479H138.538V40.7749H143.132V33.0479Z" fill="white"/>
<path d="M172.636 41.3786C176.868 41.4993 180.496 39.9297 183.518 36.9114C184.728 35.704 185.695 34.4967 186.42 33.0479H180.979C180.737 33.2893 180.496 33.6515 180.254 33.893C178.198 36.0662 175.659 37.1528 172.636 37.1528C169.613 37.1528 167.195 36.0662 165.139 34.0137C164.897 33.7723 164.655 33.4101 164.414 33.1686H158.972C159.698 34.4967 160.665 35.8248 161.874 37.0321C164.776 39.9297 168.404 41.3786 172.636 41.3786Z" fill="white"/>
<path d="M220.035 33.0479H215.319V40.7749H220.035V33.0479Z" fill="white"/>
<path d="M200.809 33.0479H196.215V40.7749H200.809V33.0479Z" fill="white"/>
<path d="M258.366 33.0479H253.65V40.7749H258.366V33.0479Z" fill="white"/>
<path d="M267.797 40.7749H295.487V36.5492H276.745L280.01 33.0479H273.843L267.797 39.5675V40.7749Z" fill="white"/>
<path d="M324.386 39.0842C326.925 40.6538 329.827 41.3782 332.85 41.3782C336.599 41.3782 339.622 40.2916 342.04 38.2391C343.733 36.7903 344.821 34.9793 345.305 32.9268H340.226C339.863 33.7719 339.259 34.4963 338.533 35.1C337.082 36.3073 335.148 36.911 332.729 36.911C329.344 36.911 326.321 35.5829 323.781 32.9268H318.219C319.791 35.5829 321.847 37.6354 324.386 39.0842Z" fill="white"/>
<path d="M369.367 33.0479H364.651V40.7749H369.367V33.0479Z" fill="white"/>
<path d="M407.093 41.3786C412.776 41.4993 417.613 39.4468 421.845 35.4625C422.691 34.7381 423.296 33.893 423.9 33.0479H417.734C414.711 35.8248 411.204 37.1528 407.214 37.0321C402.982 37.0321 399.475 35.704 396.573 33.0479H390.406C391.011 33.893 391.737 34.7381 392.462 35.4625C396.452 39.5675 401.41 41.4993 407.093 41.3786Z" fill="white"/>
<path d="M461.868 40.7749H467.309L461.626 33.0479H456.064L461.868 40.7749Z" fill="white"/>
<path d="M443.247 33.0479H438.531V40.7749H443.247V33.0479Z" fill="white"/>
<path d="M500.078 40.7749V36.5492H478.434V33.0479H473.718V40.7749H500.078Z" fill="white"/>
<path d="M534.297 40.7749V36.5492H512.653V33.0479H507.937V40.7749H534.297Z" fill="white"/>
<path d="M538.65 40.7749H570.209V36.5492H546.026L548.444 33.0479H543.124L538.65 39.3261V40.7749Z" fill="white"/>
</svg>
